<?xml version="1.0" standalone="no"?>
<!DOCTYPE svg PUBLIC "-//W3C//DTD SVG 20010904//EN"
 "http://www.w3.org/TR/2001/REC-SVG-20010904/DTD/svg10.dtd">
<svg version="1.0" xmlns="http://www.w3.org/2000/svg"
 width="488.000000pt" height="488.000000pt" viewBox="0 0 488.000000 488.000000"
 preserveAspectRatio="xMidYMid meet">
<metadata>
Created by potrace 1.11, written by Peter Selinger 2001-2013
</metadata>
<g transform="translate(0.000000,488.000000) scale(0.100000,-0.100000)"
fill="#000000" stroke="none">
<path d="M2370 4136 c-6 -6 -10 -6 -10 -1 0 14 -49 -47 -61 -77 -6 -15 -16
-25 -22 -21 -5 3 -7 1 -3 -5 3 -6 0 -16 -7 -24 -8 -7 -12 -19 -9 -26 2 -6 -1
-12 -7 -12 -6 0 -11 -7 -11 -15 0 -8 -5 -15 -11 -15 -5 0 -7 -4 -4 -10 3 -5 1
-10 -5 -10 -6 0 -8 -4 -5 -10 3 -5 1 -10 -5 -10 -6 0 -8 -4 -5 -10 3 -5 1 -10
-5 -10 -6 0 -8 -4 -5 -10 3 -5 2 -10 -4 -10 -6 0 -13 -11 -17 -25 -3 -14 -9
-25 -13 -25 -5 0 -31 -57 -31 -67 0 -2 -9 -12 -20 -23 -12 -12 -18 -25 -15
-30 4 -6 1 -10 -5 -10 -6 0 -8 -4 -5 -10 3 -5 2 -10 -4 -10 -8 0 -25 -36 -23
-50 0 -3 -6 -9 -14 -13 -8 -5 -12 -12 -9 -18 4 -5 2 -9 -2 -9 -5 0 -15 -16
-22 -35 -7 -21 -17 -33 -23 -29 -7 5 -9 1 -5 -9 3 -10 2 -17 -3 -17 -6 0 -9
-3 -8 -7 3 -14 -25 -63 -35 -63 -6 0 -8 -3 -4 -6 3 -4 -1 -13 -9 -21 -8 -9
-13 -20 -11 -26 2 -6 -6 -20 -18 -32 -12 -11 -20 -26 -18 -32 3 -7 0 -13 -7
-13 -6 0 -9 -4 -6 -9 3 -5 -1 -14 -9 -21 -8 -7 -12 -16 -9 -21 3 -5 0 -9 -5
-9 -6 0 -11 -7 -11 -15 0 -8 -5 -15 -12 -15 -6 0 -9 -3 -5 -6 3 -4 -1 -13 -9
-21 -8 -9 -13 -22 -10 -29 3 -7 -4 -20 -14 -27 -11 -8 -17 -17 -13 -20 3 -4 1
-7 -6 -7 -7 0 -9 -4 -6 -10 3 -5 1 -10 -5 -10 -6 0 -8 -4 -5 -10 3 -5 1 -10
-5 -10 -6 0 -9 -4 -6 -9 3 -5 -1 -14 -9 -21 -8 -7 -13 -16 -10 -20 3 -4 -2
-11 -11 -14 -8 -3 -12 -10 -9 -16 3 -5 1 -10 -4 -10 -6 0 -11 -7 -11 -15 0 -8
-5 -15 -11 -15 -5 0 -8 -4 -4 -9 3 -5 -1 -16 -9 -24 -8 -8 -12 -17 -9 -21 4
-3 2 -6 -4 -6 -10 0 -28 -46 -25 -62 1 -5 -4 -7 -10 -5 -7 1 -14 -8 -16 -20
-2 -13 -8 -23 -14 -23 -6 0 -9 -3 -5 -6 3 -4 0 -13 -8 -20 -8 -8 -11 -22 -8
-31 4 -10 2 -14 -4 -10 -6 4 -16 -7 -23 -23 -7 -17 -16 -30 -21 -30 -5 0 -6
-7 -3 -15 4 -8 2 -15 -3 -15 -5 0 -15 -16 -23 -35 -8 -19 -18 -35 -24 -35 -5
0 -7 -3 -3 -6 3 -4 -1 -13 -9 -21 -8 -8 -12 -18 -9 -23 3 -4 -2 -11 -11 -14
-9 -4 -14 -9 -11 -13 4 -3 -1 -12 -11 -20 -10 -9 -11 -12 -2 -7 12 6 12 4 -1
-12 -9 -10 -20 -29 -23 -41 -4 -13 -12 -23 -17 -23 -5 0 -9 -9 -9 -20 0 -11
-4 -20 -9 -20 -8 0 -17 -21 -19 -44 0 -5 -7 -13 -16 -18 -9 -5 -14 -13 -11
-17 2 -5 -2 -14 -10 -21 -8 -7 -12 -16 -9 -21 3 -5 0 -9 -6 -9 -6 0 -8 -4 -5
-10 3 -5 1 -10 -4 -10 -6 0 -11 -7 -11 -15 0 -8 -4 -15 -10 -15 -5 0 -10 -9
-10 -20 0 -11 -4 -20 -9 -20 -5 0 -12 -11 -15 -25 -4 -14 -11 -25 -17 -25 -6
0 -7 -5 -4 -10 3 -5 1 -10 -5 -10 -6 0 -8 -5 -5 -10 3 -5 1 -10 -6 -10 -7 0
-10 -3 -6 -6 3 -4 -1 -13 -9 -21 -8 -8 -12 -19 -9 -24 4 -5 -1 -9 -10 -9 -9 0
-14 -4 -10 -9 3 -5 1 -12 -5 -16 -5 -3 -10 -15 -10 -26 0 -10 -5 -19 -11 -19
-5 0 -7 -4 -4 -10 3 -5 1 -10 -4 -10 -6 0 -11 -5 -11 -11 0 -7 -8 -18 -17 -26
-10 -8 -11 -11 -4 -7 9 5 6 -4 -7 -23 -12 -17 -19 -33 -15 -37 3 -3 1 -6 -6
-6 -7 0 -9 -4 -6 -10 3 -5 -2 -10 -11 -10 -10 0 -15 -3 -11 -6 3 -4 0 -19 -9
-35 -8 -16 -14 -32 -13 -35 0 -4 -3 -10 -8 -13 -4 -3 -15 -15 -23 -25 -13 -18
-13 -19 0 -11 8 4 5 -2 -8 -14 -12 -12 -20 -26 -17 -32 4 -5 1 -9 -4 -9 -6 0
-11 -7 -11 -16 0 -8 -4 -13 -8 -10 -4 2 -9 -5 -9 -16 -1 -12 -6 -24 -11 -27
-5 -3 -12 -16 -16 -28 -4 -13 -12 -23 -17 -23 -6 0 -7 -4 -4 -10 3 -5 1 -10
-6 -10 -7 0 -10 -3 -6 -6 3 -4 -1 -13 -9 -21 -8 -8 -12 -19 -9 -24 4 -5 1 -9
-5 -9 -6 0 -8 -4 -5 -10 3 -5 1 -10 -4 -10 -6 0 -11 -7 -11 -16 0 -9 -5 -12
-12 -8 -7 4 -10 4 -6 -1 4 -4 2 -17 -4 -29 -7 -11 -11 -24 -10 -28 1 -5 -2 -8
-7 -8 -5 0 -12 -11 -15 -25 -4 -14 -10 -24 -14 -21 -4 2 -9 -5 -9 -17 -1 -12
-7 -23 -13 -25 -5 -2 -10 -8 -10 -14 0 -5 -9 -22 -20 -38 -11 -15 -17 -30 -13
-34 3 -3 1 -6 -6 -6 -7 0 -9 -5 -6 -10 3 -6 1 -10 -4 -10 -6 0 -11 -5 -11 -10
0 -6 -11 -28 -24 -49 -14 -21 -22 -42 -19 -45 4 -3 1 -6 -6 -6 -7 0 -9 -4 -6
-10 3 -5 1 -10 -5 -10 -6 0 -8 -5 -5 -10 3 -6 -1 -13 -9 -16 -9 -3 -16 -10
-16 -16 0 -5 6 -6 12 -2 7 4 4 -3 -7 -15 -15 -18 -17 -24 -6 -30 8 -5 11 -14
7 -20 -4 -5 2 -19 14 -31 11 -11 20 -25 20 -32 0 -6 3 -9 6 -5 4 3 13 -1 22
-9 11 -12 17 -12 22 -4 6 9 9 9 13 -1 3 -9 6 -9 6 -2 1 8 10 9 31 3 17 -5 30
-5 30 0 0 5 13 5 30 0 17 -5 30 -5 30 0 0 5 13 5 30 0 17 -5 30 -5 30 0 0 5
13 5 30 0 17 -5 30 -5 30 0 0 5 13 5 30 0 17 -5 30 -6 30 -2 0 4 153 5 340 2
187 -3 340 -2 340 2 0 4 14 3 30 -2 17 -5 30 -5 30 0 0 5 13 5 30 0 17 -5 30
-5 30 0 0 5 13 5 30 0 17 -5 30 -5 30 0 0 5 13 5 30 0 17 -5 30 -5 30 0 0 5
13 5 30 0 17 -5 30 -5 30 0 0 5 13 5 30 0 17 -5 30 -5 30 0 0 5 13 5 30 0 17
-5 30 -5 30 0 0 5 13 5 30 0 17 -5 30 -5 30 0 0 5 13 5 30 0 17 -5 30 -5 30 0
0 5 13 5 30 0 17 -5 30 -6 30 -2 0 4 153 5 340 2 187 -3 340 -2 340 2 0 4 14
3 30 -2 17 -5 30 -5 30 0 0 5 13 5 30 0 17 -5 30 -5 30 0 0 5 13 5 30 0 17 -5
30 -5 30 0 0 5 13 5 30 0 17 -5 30 -5 30 0 0 5 13 5 30 0 17 -5 30 -5 30 0 0
5 13 5 30 0 17 -5 30 -5 30 0 0 5 13 5 30 0 17 -5 30 -5 30 0 0 5 13 5 30 0
17 -5 30 -5 30 0 0 5 13 5 30 0 17 -5 30 -5 30 0 0 5 13 5 30 0 17 -5 30 -6
30 -2 0 4 153 5 340 2 187 -3 340 -2 340 2 0 4 14 3 30 -2 17 -5 30 -5 30 0 0
5 13 5 30 0 17 -5 30 -5 30 0 0 5 6 7 14 4 8 -3 17 0 21 5 3 6 11 9 16 6 5 -4
9 -2 9 4 0 5 7 17 16 26 10 9 17 30 18 46 1 16 5 29 10 29 5 0 3 6 -3 13 -6 8
-8 17 -4 20 3 4 1 7 -5 7 -7 0 -12 7 -12 15 0 8 -4 15 -10 15 -5 0 -10 9 -10
20 0 11 -4 20 -10 20 -5 0 -10 7 -10 15 0 8 -5 15 -12 15 -6 0 -8 3 -5 7 4 3
-1 12 -11 20 -9 8 -11 11 -3 7 13 -6 -19 44 -47 74 -7 8 -10 17 -7 21 2 5 -5
17 -15 29 -11 12 -20 28 -20 37 0 9 -7 18 -15 21 -8 4 -12 10 -9 15 3 5 0 9
-5 9 -6 0 -11 9 -11 21 0 11 -4 17 -10 14 -5 -3 -10 3 -10 14 0 12 -4 21 -10
21 -5 0 -10 7 -10 15 0 8 -4 15 -9 15 -8 0 -22 34 -18 45 1 2 -7 10 -17 18
-10 8 -16 19 -13 24 4 6 0 13 -8 17 -8 3 -15 12 -15 21 0 8 -4 15 -10 15 -5 0
-10 6 -10 14 0 7 -7 19 -15 26 -8 7 -12 16 -9 21 3 5 0 9 -5 9 -6 0 -11 7 -11
15 0 8 -5 15 -11 15 -5 0 -7 4 -4 10 3 5 1 10 -5 10 -6 0 -8 5 -5 10 3 6 1 10
-4 10 -6 0 -11 7 -11 15 0 8 -4 15 -10 15 -5 0 -10 7 -10 15 0 8 -4 15 -10 15
-5 0 -10 9 -10 20 0 11 -4 20 -10 20 -5 0 -10 7 -10 15 0 8 -5 15 -11 15 -5 0
-8 4 -5 8 3 5 -4 19 -15 30 -11 12 -16 22 -12 22 4 0 4 4 -2 8 -18 13 -45 69
-37 77 4 5 1 5 -5 1 -8 -4 -13 -1 -13 8 0 9 -5 16 -11 16 -5 0 -8 4 -5 9 4 5
2 11 -3 13 -5 1 -11 10 -13 18 -2 8 -10 21 -18 28 -13 12 -13 13 0 7 8 -4 5 2
-7 13 -12 11 -19 22 -16 26 4 3 1 6 -6 6 -7 0 -9 5 -6 10 3 6 1 10 -4 10 -6 0
-11 6 -11 14 0 7 -7 19 -15 26 -8 7 -12 16 -9 21 3 5 0 9 -5 9 -6 0 -11 7 -11
15 0 8 -5 15 -11 15 -5 0 -8 4 -4 9 3 6 -2 14 -11 19 -9 5 -16 13 -16 18 -1
18 -21 54 -30 54 -5 0 -6 5 -3 10 3 6 1 10 -5 10 -6 0 -8 5 -5 10 3 6 1 10 -4
10 -6 0 -11 9 -11 21 0 11 -4 17 -10 14 -9 -6 -14 8 -11 28 0 4 -2 7 -7 7 -4
0 -14 15 -21 32 -8 18 -21 39 -28 46 -7 8 -11 18 -8 23 4 5 -1 9 -9 9 -9 0
-16 9 -16 20 0 11 -5 20 -11 20 -5 0 -8 4 -5 8 3 5 -4 14 -14 22 -10 8 -16 18
-13 22 3 5 -3 16 -13 24 -11 9 -13 13 -4 9 8 -4 6 1 -4 9 -11 9 -17 16 -13 16
3 0 -5 16 -18 36 -13 19 -27 44 -30 55 -4 10 -11 19 -16 19 -6 0 -7 5 -4 10 3
6 1 10 -6 10 -7 0 -10 3 -6 6 3 4 -1 13 -9 21 -8 8 -11 19 -8 25 4 7 2 8 -4 4
-7 -4 -12 -1 -12 8 0 9 -4 16 -10 16 -5 0 -10 8 -10 18 0 10 -5 23 -11 29 -14
14 -36 52 -45 76 -3 9 -11 17 -16 17 -5 0 -6 5 -3 10 3 6 2 10 -2 10 -5 0 -14
9 -21 21 -11 17 -11 20 0 13 7 -4 0 8 -17 26 -16 18 -23 30 -15 26 8 -4 5 1
-7 12 -12 11 -20 22 -17 25 3 3 -3 16 -15 28 -11 12 -18 26 -15 31 3 4 0 8 -5
8 -6 0 -11 7 -11 15 0 8 -4 15 -10 15 -5 0 -10 7 -10 15 0 8 -5 15 -11 15 -6
0 -8 7 -5 16 4 9 2 13 -5 8 -7 -4 -10 -1 -7 7 3 8 -4 22 -15 32 -11 9 -17 17
-13 17 4 0 -6 17 -21 37 -15 20 -21 34 -13 29 8 -4 5 2 -8 13 -13 11 -25 30
-27 42 -3 13 -11 27 -20 31 -8 5 -15 18 -15 28 0 10 -8 24 -17 29 -10 6 -14
11 -9 11 5 0 1 9 -8 19 -10 11 -15 25 -10 32 4 7 3 10 -3 6 -6 -4 -19 11 -29
33 -10 22 -23 40 -27 40 -5 0 -5 5 -2 10 3 6 2 10 -3 10 -5 0 -12 8 -16 18 -7
22 -28 55 -41 64 -7 5 -7 8 0 8 6 0 4 4 -3 9 -7 4 -15 17 -16 27 -2 10 -9 18
-16 16 -6 -1 -9 2 -6 7 3 5 -2 19 -12 32 -11 13 -25 39 -33 57 -8 17 -17 32
-21 32 -5 0 -8 9 -8 20 0 11 -7 23 -15 26 -8 4 -12 10 -9 15 3 5 0 9 -6 9 -6
0 -8 5 -5 10 3 6 2 10 -3 10 -5 0 -17 18 -27 40 -10 22 -26 42 -36 45 -11 4
-19 11 -19 16 0 6 -4 7 -10 4 -5 -3 -10 -2 -10 2 0 12 -68 11 -80 -1z m66
-366 c7 -8 9 -20 7 -27 -3 -8 -1 -13 5 -11 5 2 9 0 9 -3 -1 -4 5 -15 13 -25
27 -34 50 -81 42 -89 -4 -5 -1 -5 6 -1 7 4 12 1 12 -8 0 -9 5 -16 11 -16 5 0
7 -4 4 -10 -3 -5 -1 -10 5 -10 6 0 8 -4 5 -10 -3 -5 -2 -10 2 -10 5 0 14 -9
21 -21 11 -17 11 -20 0 -14 -7 4 -1 -5 15 -19 15 -15 25 -31 23 -35 -3 -4 3
-17 12 -27 10 -10 18 -22 18 -26 -1 -4 7 -16 16 -27 9 -11 14 -22 11 -25 -4
-3 -1 -6 5 -6 7 0 12 -9 12 -20 0 -11 4 -20 9 -20 5 0 14 -13 21 -30 7 -16 16
-30 21 -30 5 0 9 -9 9 -20 0 -11 5 -20 10 -20 6 0 10 -7 10 -15 0 -8 5 -15 10
-15 6 0 10 -9 10 -20 0 -11 3 -20 8 -20 4 0 23 -28 41 -62 19 -35 39 -66 44
-69 5 -3 8 -9 8 -13 -3 -18 0 -27 7 -23 4 3 14 -10 23 -29 9 -19 11 -31 5 -28
-6 3 -1 -3 11 -14 12 -11 19 -22 16 -26 -4 -3 -1 -6 5 -6 7 0 12 -7 12 -15 0
-8 5 -15 11 -15 5 0 8 -4 4 -9 -3 -5 -1 -12 5 -16 6 -4 8 -11 5 -16 -4 -5 2
-9 11 -9 10 0 14 -3 11 -7 -4 -3 4 -21 18 -38 13 -18 21 -35 18 -39 -3 -3 1
-8 10 -12 9 -3 13 -12 10 -21 -4 -11 -2 -14 5 -9 7 4 12 1 12 -8 0 -9 5 -16
11 -16 5 0 7 -5 4 -11 -4 -6 1 -17 11 -25 11 -9 13 -13 4 -9 -8 4 -5 -2 7 -13
12 -11 19 -22 16 -26 -4 -3 0 -6 7 -6 7 0 11 -3 7 -6 -3 -4 1 -13 9 -21 8 -8
12 -19 9 -24 -4 -5 -1 -9 4 -9 6 0 11 -7 11 -15 0 -8 5 -15 10 -15 6 0 10 -7
10 -15 0 -8 5 -15 11 -15 5 0 7 -4 4 -10 -3 -6 -1 -10 5 -10 6 0 8 -4 5 -10
-3 -5 -2 -10 3 -10 5 0 17 -18 27 -40 10 -22 22 -40 27 -40 5 0 6 -4 3 -10 -3
-5 -1 -10 4 -10 6 0 11 -7 11 -15 0 -8 5 -15 11 -15 5 0 7 -4 4 -10 -3 -6 -1
-10 5 -10 6 0 9 -4 5 -9 -3 -6 3 -14 12 -20 10 -6 14 -11 10 -11 -5 0 1 -13
13 -30 12 -16 18 -30 13 -30 -4 0 0 -5 10 -11 9 -6 15 -14 12 -20 -4 -5 1 -9
10 -9 9 0 13 -5 10 -10 -3 -6 3 -22 14 -36 11 -15 18 -30 15 -35 -3 -5 0 -9 5
-9 6 0 11 -6 11 -14 0 -8 7 -17 16 -20 9 -4 14 -13 10 -21 -3 -8 -2 -15 3 -15
4 0 19 -20 32 -45 13 -25 27 -45 31 -45 5 0 8 -9 8 -20 0 -11 5 -20 10 -20 6
0 10 -7 10 -15 0 -8 4 -15 10 -15 5 0 6 -7 3 -17 -4 -11 -3 -14 5 -9 7 4 12 1
12 -8 0 -9 5 -16 11 -16 5 0 7 -4 4 -10 -3 -5 -2 -10 3 -10 4 0 14 -16 22 -35
8 -19 17 -35 22 -35 4 0 8 -7 8 -15 0 -8 5 -15 10 -15 6 0 10 -9 10 -20 0 -11
7 -20 15 -20 9 0 12 -6 9 -15 -4 -8 -1 -15 6 -15 6 0 8 -4 5 -10 -3 -5 -1 -10
5 -10 6 0 9 -4 6 -8 -3 -5 4 -14 14 -22 10 -8 16 -18 13 -22 -3 -5 3 -16 13
-24 11 -9 13 -13 4 -9 -8 4 -5 -2 7 -13 12 -11 19 -22 16 -26 -4 -3 -1 -6 5
-6 7 0 12 -3 11 -8 -3 -17 14 -51 22 -46 5 3 9 -4 9 -15 0 -12 5 -21 10 -21 6
0 10 -6 10 -14 0 -8 7 -22 16 -30 8 -9 12 -21 8 -27 -4 -7 -3 -9 3 -6 6 4 16
-7 23 -23 7 -17 17 -30 22 -30 5 0 6 -4 3 -10 -3 -5 -1 -10 5 -10 6 0 9 -4 6
-8 -3 -5 3 -18 14 -29 10 -12 16 -24 13 -27 -4 -3 -1 -6 6 -6 7 0 11 -6 8 -14
-3 -8 1 -17 9 -20 9 -3 12 -10 9 -16 -3 -5 -2 -10 2 -10 12 0 44 -56 36 -64
-3 -3 0 -6 8 -6 12 0 12 -2 -1 -9 -8 -6 -19 -7 -25 -3 -15 10 -28 9 -43 -2 -9
-7 -16 -6 -21 3 -6 9 -15 9 -34 2 -18 -7 -27 -7 -27 0 0 6 -7 6 -20 -1 -11 -6
-20 -7 -20 -2 0 9 -53 8 -69 -3 -6 -3 -11 -2 -11 2 0 10 -41 10 -57 0 -7 -4
-14 -3 -17 2 -7 11 -25 9 -45 -3 -8 -5 -16 -4 -20 3 -6 8 -15 9 -34 2 -18 -7
-27 -7 -27 0 0 6 -7 6 -20 -1 -11 -6 -20 -7 -20 -3 0 11 -61 10 -79 -1 -7 -5
-16 -4 -20 1 -6 11 -40 11 -57 1 -5 -4 -16 -3 -24 2 -7 4 -24 4 -37 -1 -12 -5
-23 -5 -23 -1 0 9 -42 8 -57 -1 -7 -4 -14 -3 -17 2 -7 11 -25 9 -45 -3 -8 -5
-16 -4 -20 3 -6 8 -15 9 -34 2 -18 -7 -27 -7 -27 0 0 6 -7 6 -20 -1 -11 -6
-20 -7 -20 -3 0 11 -61 10 -79 -1 -7 -5 -16 -4 -20 1 -6 11 -40 11 -57 1 -5
-4 -16 -3 -24 2 -7 4 -19 6 -27 3 -8 -3 -13 2 -13 13 0 16 -2 17 -10 4 -8 -12
-10 -11 -10 6 0 12 -9 33 -20 47 -11 14 -20 30 -20 36 0 7 -7 14 -15 17 -8 4
-12 10 -9 15 3 5 0 9 -5 9 -6 0 -11 7 -11 15 0 8 -5 15 -11 15 -5 0 -8 4 -4 9
3 6 -3 14 -12 20 -10 6 -14 11 -10 11 4 0 -3 15 -15 33 -13 17 -31 46 -39 62
-7 17 -22 39 -31 49 -10 11 -18 26 -18 33 0 7 -4 13 -10 13 -5 0 -10 7 -10 15
0 9 -7 18 -15 21 -8 4 -13 10 -10 14 3 5 -5 18 -17 29 -12 12 -18 21 -14 21 4
0 -1 12 -12 28 -10 15 -22 35 -25 45 -4 11 -12 15 -19 11 -7 -4 -10 -4 -6 0
10 12 -32 87 -45 79 -6 -4 -8 0 -4 9 3 9 -3 25 -14 36 -10 12 -19 26 -19 32 0
5 -4 10 -10 10 -5 0 -10 9 -10 20 0 10 -8 24 -17 29 -10 6 -14 11 -10 11 4 0
-3 15 -17 33 -15 19 -26 39 -26 45 0 7 -4 12 -9 12 -5 0 -13 10 -17 22 -8 25
-45 81 -57 86 -4 2 -5 8 -1 13 3 5 -2 9 -11 9 -9 0 -13 5 -9 11 3 6 -7 24 -22
41 -16 17 -23 28 -16 24 20 -12 14 8 -8 24 -11 8 -20 19 -20 25 0 6 -9 21 -19
32 -11 12 -17 23 -14 27 3 3 -2 8 -11 12 -9 3 -14 10 -11 14 3 5 -1 15 -9 22
-7 8 -17 24 -20 36 -4 12 -11 22 -16 22 -5 0 -17 17 -27 38 -9 20 -22 40 -27
44 -6 4 -7 8 -3 8 7 0 0 10 -30 44 -7 8 -9 16 -6 20 4 3 0 6 -7 6 -7 0 -11 3
-7 6 3 3 -3 15 -14 27 -10 11 -19 27 -19 34 0 7 -4 13 -10 13 -5 0 -10 6 -10
13 0 7 -9 23 -19 34 -11 12 -17 24 -14 27 4 3 1 6 -6 6 -7 0 -9 5 -6 10 3 6 2
10 -3 10 -24 0 -44 90 -21 98 5 2 9 8 9 14 0 5 9 21 20 35 11 14 17 29 14 34
-3 5 0 9 6 9 6 0 9 4 6 9 -4 5 -3 11 2 13 4 1 22 32 41 68 19 36 40 72 47 81
8 9 11 19 7 22 -3 4 -2 7 4 7 10 0 26 36 24 53 -1 4 3 7 9 7 5 0 10 7 10 15 0
8 5 15 10 15 6 0 10 5 10 11 0 7 13 33 29 59 16 27 27 51 24 54 -4 3 -1 6 6 6
7 0 9 5 6 10 -3 6 -1 10 5 10 6 0 8 5 5 10 -3 6 -2 10 3 10 8 0 38 54 40 73 1
4 8 15 17 23 8 9 13 19 10 24 -3 4 2 11 11 14 9 4 14 9 10 13 -3 4 4 18 16 31
13 14 16 21 8 17 -13 -8 -13 -7 0 11 8 10 19 22 23 25 5 3 8 8 7 10 -4 11 13
38 21 33 5 -3 6 3 2 12 -4 10 0 20 11 26 9 5 14 13 11 19 -4 5 -1 9 6 9 7 0
10 3 6 6 -3 4 1 13 9 21 8 8 12 19 9 24 -4 5 -1 9 5 9 6 0 8 4 5 10 -3 5 3 15
14 21 10 7 17 19 14 26 -3 7 -1 13 5 13 9 0 25 37 23 53 -2 12 23 3 35 -13z
m-751 -1350 c-3 -6 1 -13 9 -16 9 -3 14 -10 11 -14 -3 -4 2 -13 10 -20 8 -7
15 -19 15 -26 0 -8 5 -14 10 -14 6 0 10 -4 10 -9 0 -6 14 -30 30 -54 17 -25
30 -50 30 -56 0 -6 5 -11 11 -11 5 0 7 -5 4 -10 -3 -6 1 -13 9 -16 9 -3 16
-12 16 -20 0 -8 5 -14 11 -14 5 0 8 -4 5 -9 -3 -5 8 -23 24 -41 16 -18 27 -36
24 -41 -3 -5 2 -12 10 -15 9 -3 16 -14 16 -23 0 -9 10 -28 23 -41 12 -14 23
-32 25 -40 2 -8 8 -16 13 -18 5 -2 9 -10 9 -18 0 -8 5 -14 11 -14 5 0 7 -5 4
-10 -3 -6 1 -13 9 -16 9 -3 13 -10 10 -15 -3 -5 0 -9 7 -9 7 0 10 -3 6 -6 -3
-3 5 -18 19 -32 13 -15 23 -31 21 -36 -2 -5 5 -18 15 -28 10 -10 18 -25 18
-34 0 -9 5 -12 12 -8 8 5 9 0 6 -14 -4 -12 -3 -20 2 -17 4 3 13 -2 20 -10 7
-8 9 -15 4 -15 -5 0 0 -7 10 -15 11 -8 16 -15 12 -15 -4 0 2 -12 13 -26 11
-15 18 -31 14 -37 -3 -6 -1 -7 5 -3 7 4 14 -3 18 -19 3 -14 12 -25 20 -25 8 0
11 -6 8 -15 -4 -8 -1 -15 5 -15 6 0 11 -7 11 -15 0 -8 5 -15 11 -15 5 0 7 -5
4 -10 -3 -6 1 -13 9 -16 9 -3 13 -10 10 -15 -3 -5 0 -9 6 -9 6 0 8 -5 5 -10
-3 -6 1 -13 9 -16 9 -3 13 -10 10 -15 -3 -5 0 -9 5 -9 6 0 11 -6 11 -13 0 -7
8 -22 18 -33 17 -18 35 -54 32 -63 -1 -2 5 -8 14 -13 9 -5 16 -16 16 -23 0 -8
5 -15 10 -15 6 0 10 -7 10 -15 0 -8 5 -15 11 -15 5 0 8 -4 4 -9 -3 -5 6 -21
19 -34 14 -14 22 -28 19 -31 -4 -3 -1 -6 6 -6 7 0 10 -4 7 -8 -3 -5 3 -18 14
-29 10 -12 16 -24 13 -27 -4 -3 -2 -6 4 -6 5 0 15 -12 22 -26 9 -20 9 -25 -1
-21 -7 2 -23 0 -35 -4 -13 -5 -23 -5 -23 -1 0 9 -42 8 -57 -1 -7 -4 -14 -3
-17 2 -7 11 -25 9 -45 -3 -8 -5 -16 -4 -20 3 -6 8 -15 9 -34 2 -18 -7 -27 -7
-27 0 0 6 -7 6 -20 -1 -11 -6 -20 -7 -20 -3 0 11 -61 10 -79 -1 -7 -5 -16 -4
-20 1 -6 11 -40 11 -57 1 -5 -4 -16 -3 -24 2 -7 4 -24 4 -37 -1 -12 -5 -23 -5
-23 -1 0 9 -42 8 -57 -1 -7 -4 -14 -3 -17 2 -7 11 -25 9 -45 -3 -8 -5 -16 -4
-20 3 -6 8 -15 9 -34 2 -18 -7 -27 -7 -27 0 0 6 -7 6 -20 -1 -11 -6 -20 -7
-20 -3 0 11 -61 10 -79 -1 -7 -5 -16 -4 -20 1 -6 11 -40 11 -57 1 -5 -4 -16
-3 -24 2 -7 4 -24 4 -37 -1 -12 -5 -23 -5 -23 -1 0 9 -42 8 -57 -1 -7 -4 -14
-3 -17 2 -7 11 -25 9 -45 -3 -8 -5 -16 -4 -20 3 -6 8 -15 9 -34 2 -18 -7 -27
-7 -27 0 0 6 -7 6 -20 -1 -11 -6 -20 -7 -20 -2 0 9 -53 8 -69 -3 -6 -3 -11 -2
-11 2 0 10 -41 10 -57 0 -7 -4 -14 -3 -17 2 -7 11 -25 9 -45 -3 -8 -5 -16 -4
-20 3 -6 8 -15 9 -34 2 -18 -7 -27 -7 -27 0 0 6 -7 6 -20 -1 -11 -6 -20 -7
-20 -3 0 10 -61 10 -77 0 -8 -5 -13 -3 -13 4 0 8 -4 8 -15 -1 -9 -7 -15 -8
-15 -2 0 5 -9 8 -20 5 -17 -5 -18 -3 -7 21 7 14 15 26 20 26 4 0 7 6 7 14 0 7
11 29 24 49 13 19 22 38 19 41 -3 3 2 8 11 12 9 3 14 10 11 14 -3 5 -1 11 5
15 6 4 8 11 5 16 -4 5 -1 9 5 9 6 0 8 5 5 10 -3 6 1 10 10 10 9 0 14 4 10 9
-3 5 -1 12 4 16 6 3 7 13 4 22 -4 11 -3 14 5 9 11 -6 14 0 11 21 0 3 6 10 15
15 9 5 14 13 11 19 -4 5 -1 9 6 9 7 0 9 3 6 7 -4 3 1 12 11 20 9 8 11 12 5 8
-9 -4 -11 -1 -7 9 3 9 10 16 16 16 5 0 7 4 4 9 -3 5 1 12 10 15 9 4 14 9 11
12 -3 4 1 13 9 21 8 9 13 21 10 28 -3 8 2 16 10 19 8 3 14 12 14 20 0 8 5 16
11 18 5 2 11 11 12 20 2 9 8 22 15 30 6 8 9 18 5 21 -3 4 -1 7 5 7 7 0 12 7
12 15 0 8 5 15 12 15 6 0 9 3 5 6 -3 4 1 13 9 21 8 9 13 21 10 28 -2 6 4 18
14 25 11 8 17 17 14 22 -3 4 0 8 6 8 6 0 8 5 5 10 -3 6 -1 10 5 10 6 0 9 4 6
8 -3 5 4 18 14 30 11 12 20 28 20 36 0 7 7 17 16 20 8 3 12 10 9 16 -3 5 7 30
24 54 17 24 27 46 24 50 -4 3 -1 6 6 6 7 0 10 4 7 9 -3 5 1 14 9 21 8 7 15 19
15 26 0 8 4 14 9 14 5 0 12 14 16 30 4 17 11 30 16 30 5 0 9 6 9 14 0 7 7 19
15 26 8 7 15 20 15 30 0 10 7 20 15 24 8 3 15 15 15 26 0 11 5 20 11 20 6 0 9
6 6 14 -3 8 1 17 9 20 9 3 12 10 9 16 -3 5 -1 10 4 10 6 0 11 7 11 15 0 8 5
15 11 15 5 0 8 4 5 9 -3 5 1 14 9 21 8 7 12 16 9 21 -3 5 0 9 7 9 7 0 9 3 6 7
-4 3 1 12 11 20 9 8 11 11 3 7 -9 -5 -12 -3 -7 4 4 7 14 12 22 12 8 0 12 -5 9
-10z"/>
</g>
</svg>
